<svg width="486" height="492" viewBox="0 0 486 492" fill="none" xmlns="http://www.w3.org/2000/svg">
<g filter="url(#filter0_d_28_3)">
<mask id="path-1-inside-1_28_3" fill="white">
<path d="M62.4219 168.468C62.4219 185.724 48.4483 199.712 31.2109 199.712C13.9736 199.712 0 185.724 0 168.468C0 151.213 13.9736 137.225 31.2109 137.225C48.4483 137.225 62.4219 151.213 62.4219 168.468Z"/>
<path d="M130.352 168.468C130.352 185.724 116.789 199.712 100.059 199.712C83.3283 199.712 69.7656 185.724 69.7656 168.468C69.7656 151.213 83.3283 137.225 100.059 137.225C116.789 137.225 130.352 151.213 130.352 168.468Z"/>
<path d="M198.281 169.694C198.281 186.949 184.582 200.937 167.682 200.937C150.783 200.937 137.083 186.949 137.083 169.694C137.083 152.439 150.783 138.45 167.682 138.45C184.582 138.45 198.281 152.439 198.281 169.694Z"/>
<path d="M267.435 169.694C267.435 186.949 253.324 200.937 235.918 200.937C218.512 200.937 204.401 186.949 204.401 169.694C204.401 152.439 218.512 138.45 235.918 138.45C253.324 138.45 267.435 152.439 267.435 169.694Z"/>
<path d="M334.141 168.468C334.141 185.724 320.167 199.712 302.93 199.712C285.692 199.712 271.719 185.724 271.719 168.468C271.719 151.213 285.692 137.225 302.93 137.225C320.167 137.225 334.141 151.213 334.141 168.468Z"/>
<path d="M402.07 169.694C402.07 186.949 388.371 200.937 371.471 200.937C354.572 200.937 340.872 186.949 340.872 169.694C340.872 152.439 354.572 138.45 371.471 138.45C388.371 138.45 402.07 152.439 402.07 169.694Z"/>
<path d="M470 169.694C470 186.949 456.026 200.937 438.789 200.937C421.552 200.937 407.578 186.949 407.578 169.694C407.578 152.439 421.552 138.45 438.789 138.45C456.026 138.45 470 152.439 470 169.694Z"/>
<path d="M130.352 99.8559C130.352 117.111 116.789 131.099 100.059 131.099C83.3283 131.099 69.7656 117.111 69.7656 99.8559C69.7656 82.6007 83.3283 68.6126 100.059 68.6126C116.789 68.6126 130.352 82.6007 130.352 99.8559Z"/>
<path d="M198.281 100.775C198.281 117.861 184.582 131.712 167.682 131.712C150.783 131.712 137.083 117.861 137.083 100.775C137.083 83.6888 150.783 69.8378 167.682 69.8378C184.582 69.8378 198.281 83.6888 198.281 100.775Z"/>
<path d="M198.281 31.5495C198.281 48.2972 184.582 61.8739 167.682 61.8739C150.783 61.8739 137.083 48.2972 137.083 31.5495C137.083 14.8019 150.783 1.22523 167.682 1.22523C184.582 1.22523 198.281 14.8019 198.281 31.5495Z"/>
<path d="M267.435 100.775C267.435 117.861 253.324 131.712 235.918 131.712C218.512 131.712 204.401 117.861 204.401 100.775C204.401 83.6888 218.512 69.8378 235.918 69.8378C253.324 69.8378 267.435 83.6888 267.435 100.775Z"/>
<path d="M267.435 31.5495C267.435 48.2972 253.324 61.8739 235.918 61.8739C218.512 61.8739 204.401 48.2972 204.401 31.5495C204.401 14.8019 218.512 1.22523 235.918 1.22523C253.324 1.22523 267.435 14.8019 267.435 31.5495Z"/>
<path d="M334.141 99.8559C334.141 117.111 320.167 131.099 302.93 131.099C285.692 131.099 271.719 117.111 271.719 99.8559C271.719 82.6007 285.692 68.6126 302.93 68.6126C320.167 68.6126 334.141 82.6007 334.141 99.8559Z"/>
<path d="M334.141 30.6306C334.141 47.5475 320.167 61.2613 302.93 61.2613C285.692 61.2613 271.719 47.5475 271.719 30.6306C271.719 13.7138 285.692 0 302.93 0C320.167 0 334.141 13.7138 334.141 30.6306Z"/>
<path d="M402.07 100.775C402.07 117.861 388.371 131.712 371.471 131.712C354.572 131.712 340.872 117.861 340.872 100.775C340.872 83.6888 354.572 69.8378 371.471 69.8378C388.371 69.8378 402.07 83.6888 402.07 100.775Z"/>
<path d="M62.4219 237.081C62.4219 253.998 48.4483 267.712 31.2109 267.712C13.9736 267.712 0 253.998 0 237.081C0 220.164 13.9736 206.45 31.2109 206.45C48.4483 206.45 62.4219 220.164 62.4219 237.081Z"/>
<path d="M130.352 237.081C130.352 253.998 116.789 267.712 100.059 267.712C83.3283 267.712 69.7656 253.998 69.7656 237.081C69.7656 220.164 83.3283 206.45 100.059 206.45C116.789 206.45 130.352 220.164 130.352 237.081Z"/>
<path d="M198.281 238C198.281 255.424 184.582 269.55 167.682 269.55C150.783 269.55 137.083 255.424 137.083 238C137.083 220.576 150.783 206.45 167.682 206.45C184.582 206.45 198.281 220.576 198.281 238Z"/>
<path d="M267.435 238C267.435 255.424 253.324 269.55 235.918 269.55C218.512 269.55 204.401 255.424 204.401 238C204.401 220.576 218.512 206.45 235.918 206.45C253.324 206.45 267.435 220.576 267.435 238Z"/>
<path d="M334.141 237.081C334.141 253.998 320.167 267.712 302.93 267.712C285.692 267.712 271.719 253.998 271.719 237.081C271.719 220.164 285.692 206.45 302.93 206.45C320.167 206.45 334.141 220.164 334.141 237.081Z"/>
<path d="M402.07 238C402.07 255.424 388.371 269.55 371.471 269.55C354.572 269.55 340.872 255.424 340.872 238C340.872 220.576 354.572 206.45 371.471 206.45C388.371 206.45 402.07 220.576 402.07 238Z"/>
<path d="M470 238C470 255.424 456.026 269.55 438.789 269.55C421.552 269.55 407.578 255.424 407.578 238C407.578 220.576 421.552 206.45 438.789 206.45C456.026 206.45 470 220.576 470 238Z"/>
<path d="M62.4219 305.387C62.4219 322.473 48.4483 336.324 31.2109 336.324C13.9736 336.324 0 322.473 0 305.387C0 288.301 13.9736 274.45 31.2109 274.45C48.4483 274.45 62.4219 288.301 62.4219 305.387Z"/>
<path d="M130.352 305.387C130.352 322.473 116.789 336.324 100.059 336.324C83.3283 336.324 69.7656 322.473 69.7656 305.387C69.7656 288.301 83.3283 274.45 100.059 274.45C116.789 274.45 130.352 288.301 130.352 305.387Z"/>
<path d="M198.281 306C198.281 323.086 184.582 336.937 167.682 336.937C150.783 336.937 137.083 323.086 137.083 306C137.083 288.914 150.783 275.063 167.682 275.063C184.582 275.063 198.281 288.914 198.281 306Z"/>
<path d="M267.435 306C267.435 323.086 253.324 336.937 235.918 336.937C218.512 336.937 204.401 323.086 204.401 306C204.401 288.914 218.512 275.063 235.918 275.063C253.324 275.063 267.435 288.914 267.435 306Z"/>
<path d="M334.141 305.387C334.141 322.473 320.167 336.324 302.93 336.324C285.692 336.324 271.719 322.473 271.719 305.387C271.719 288.301 285.692 274.45 302.93 274.45C320.167 274.45 334.141 288.301 334.141 305.387Z"/>
<path d="M402.07 306C402.07 323.086 388.371 336.937 371.471 336.937C354.572 336.937 340.872 323.086 340.872 306C340.872 288.914 354.572 275.063 371.471 275.063C388.371 275.063 402.07 288.914 402.07 306Z"/>
<path d="M470 306C470 323.086 456.026 336.937 438.789 336.937C421.552 336.937 407.578 323.086 407.578 306C407.578 288.914 421.552 275.063 438.789 275.063C456.026 275.063 470 288.914 470 306Z"/>
<path d="M130.352 374.919C130.352 391.836 116.789 405.55 100.059 405.55C83.3283 405.55 69.7656 391.836 69.7656 374.919C69.7656 358.002 83.3283 344.288 100.059 344.288C116.789 344.288 130.352 358.002 130.352 374.919Z"/>
<path d="M198.281 375.225C198.281 391.973 184.582 405.55 167.682 405.55C150.783 405.55 137.083 391.973 137.083 375.225C137.083 358.478 150.783 344.901 167.682 344.901C184.582 344.901 198.281 358.478 198.281 375.225Z"/>
<path d="M198.281 444.757C198.281 462.012 184.582 476 167.682 476C150.783 476 137.083 462.012 137.083 444.757C137.083 427.502 150.783 413.514 167.682 413.514C184.582 413.514 198.281 427.502 198.281 444.757Z"/>
<path d="M267.435 375.225C267.435 391.973 253.324 405.55 235.918 405.55C218.512 405.55 204.401 391.973 204.401 375.225C204.401 358.478 218.512 344.901 235.918 344.901C253.324 344.901 267.435 358.478 267.435 375.225Z"/>
<path d="M267.435 444.757C267.435 462.012 253.324 476 235.918 476C218.512 476 204.401 462.012 204.401 444.757C204.401 427.502 218.512 413.514 235.918 413.514C253.324 413.514 267.435 427.502 267.435 444.757Z"/>
<path d="M334.141 374.919C334.141 391.836 320.167 405.55 302.93 405.55C285.692 405.55 271.719 391.836 271.719 374.919C271.719 358.002 285.692 344.288 302.93 344.288C320.167 344.288 334.141 358.002 334.141 374.919Z"/>
<path d="M334.141 444.45C334.141 461.536 320.167 475.387 302.93 475.387C285.692 475.387 271.719 461.536 271.719 444.45C271.719 427.364 285.692 413.514 302.93 413.514C320.167 413.514 334.141 427.364 334.141 444.45Z"/>
<path d="M402.07 375.225C402.07 391.973 388.371 405.55 371.471 405.55C354.572 405.55 340.872 391.973 340.872 375.225C340.872 358.478 354.572 344.901 371.471 344.901C388.371 344.901 402.07 358.478 402.07 375.225Z"/>
</mask>
<path d="M62.4219 168.468C62.4219 185.724 48.4483 199.712 31.2109 199.712C13.9736 199.712 0 185.724 0 168.468C0 151.213 13.9736 137.225 31.2109 137.225C48.4483 137.225 62.4219 151.213 62.4219 168.468Z" fill="#DC7840"/>
<path d="M130.352 168.468C130.352 185.724 116.789 199.712 100.059 199.712C83.3283 199.712 69.7656 185.724 69.7656 168.468C69.7656 151.213 83.3283 137.225 100.059 137.225C116.789 137.225 130.352 151.213 130.352 168.468Z" fill="#DC7840"/>
<path d="M198.281 169.694C198.281 186.949 184.582 200.937 167.682 200.937C150.783 200.937 137.083 186.949 137.083 169.694C137.083 152.439 150.783 138.45 167.682 138.45C184.582 138.45 198.281 152.439 198.281 169.694Z" fill="#DC7840"/>
<path d="M267.435 169.694C267.435 186.949 253.324 200.937 235.918 200.937C218.512 200.937 204.401 186.949 204.401 169.694C204.401 152.439 218.512 138.45 235.918 138.45C253.324 138.45 267.435 152.439 267.435 169.694Z" fill="#DC7840"/>
<path d="M334.141 168.468C334.141 185.724 320.167 199.712 302.93 199.712C285.692 199.712 271.719 185.724 271.719 168.468C271.719 151.213 285.692 137.225 302.93 137.225C320.167 137.225 334.141 151.213 334.141 168.468Z" fill="#DC7840"/>
<path d="M130.352 99.8559C130.352 117.111 116.789 131.099 100.059 131.099C83.3283 131.099 69.7656 117.111 69.7656 99.8559C69.7656 82.6007 83.3283 68.6126 100.059 68.6126C116.789 68.6126 130.352 82.6007 130.352 99.8559Z" fill="#DC7840"/>
<path d="M198.281 100.775C198.281 117.861 184.582 131.712 167.682 131.712C150.783 131.712 137.083 117.861 137.083 100.775C137.083 83.6888 150.783 69.8378 167.682 69.8378C184.582 69.8378 198.281 83.6888 198.281 100.775Z" fill="#DC7840"/>
<path d="M198.281 31.5495C198.281 48.2972 184.582 61.8739 167.682 61.8739C150.783 61.8739 137.083 48.2972 137.083 31.5495C137.083 14.8019 150.783 1.22523 167.682 1.22523C184.582 1.22523 198.281 14.8019 198.281 31.5495Z" fill="#DC7840"/>
<path d="M267.435 100.775C267.435 117.861 253.324 131.712 235.918 131.712C218.512 131.712 204.401 117.861 204.401 100.775C204.401 83.6888 218.512 69.8378 235.918 69.8378C253.324 69.8378 267.435 83.6888 267.435 100.775Z" fill="#DC7840"/>
<path d="M267.435 31.5495C267.435 48.2972 253.324 61.8739 235.918 61.8739C218.512 61.8739 204.401 48.2972 204.401 31.5495C204.401 14.8019 218.512 1.22523 235.918 1.22523C253.324 1.22523 267.435 14.8019 267.435 31.5495Z" fill="#DC7840"/>
<path d="M334.141 99.8559C334.141 117.111 320.167 131.099 302.93 131.099C285.692 131.099 271.719 117.111 271.719 99.8559C271.719 82.6007 285.692 68.6126 302.93 68.6126C320.167 68.6126 334.141 82.6007 334.141 99.8559Z" fill="#DC7840"/>
<path d="M334.141 30.6306C334.141 47.5475 320.167 61.2613 302.93 61.2613C285.692 61.2613 271.719 47.5475 271.719 30.6306C271.719 13.7138 285.692 0 302.93 0C320.167 0 334.141 13.7138 334.141 30.6306Z" fill="#DC7840"/>
<path d="M402.07 100.775C402.07 117.861 388.371 131.712 371.471 131.712C354.572 131.712 340.872 117.861 340.872 100.775C340.872 83.6888 354.572 69.8378 371.471 69.8378C388.371 69.8378 402.07 83.6888 402.07 100.775Z" fill="#DC7840"/>
<path d="M130.352 237.081C130.352 253.998 116.789 267.712 100.059 267.712C83.3283 267.712 69.7656 253.998 69.7656 237.081C69.7656 220.164 83.3283 206.45 100.059 206.45C116.789 206.45 130.352 220.164 130.352 237.081Z" fill="#DC7840"/>
<path d="M267.435 238C267.435 255.424 253.324 269.55 235.918 269.55C218.512 269.55 204.401 255.424 204.401 238C204.401 220.576 218.512 206.45 235.918 206.45C253.324 206.45 267.435 220.576 267.435 238Z" fill="#DC7840"/>
<path d="M267.435 444.757C267.435 462.012 253.324 476 235.918 476C218.512 476 204.401 462.012 204.401 444.757C204.401 427.502 218.512 413.514 235.918 413.514C253.324 413.514 267.435 427.502 267.435 444.757Z" fill="#DC7840"/>
<path d="M334.141 374.919C334.141 391.836 320.167 405.55 302.93 405.55C285.692 405.55 271.719 391.836 271.719 374.919C271.719 358.002 285.692 344.288 302.93 344.288C320.167 344.288 334.141 358.002 334.141 374.919Z" fill="#DC7840"/>
<path d="M334.141 444.45C334.141 461.536 320.167 475.387 302.93 475.387C285.692 475.387 271.719 461.536 271.719 444.45C271.719 427.364 285.692 413.514 302.93 413.514C320.167 413.514 334.141 427.364 334.141 444.45Z" fill="#DC7840"/>
<path d="M402.07 375.225C402.07 391.973 388.371 405.55 371.471 405.55C354.572 405.55 340.872 391.973 340.872 375.225C340.872 358.478 354.572 344.901 371.471 344.901C388.371 344.901 402.07 358.478 402.07 375.225Z" fill="#DC7840"/>
<path d="M62.4219 168.468C62.4219 185.724 48.4483 199.712 31.2109 199.712C13.9736 199.712 0 185.724 0 168.468C0 151.213 13.9736 137.225 31.2109 137.225C48.4483 137.225 62.4219 151.213 62.4219 168.468Z" stroke="#313131" stroke-opacity="0.5" stroke-width="4" mask="url(#path-1-inside-1_28_3)"/>
<path d="M130.352 168.468C130.352 185.724 116.789 199.712 100.059 199.712C83.3283 199.712 69.7656 185.724 69.7656 168.468C69.7656 151.213 83.3283 137.225 100.059 137.225C116.789 137.225 130.352 151.213 130.352 168.468Z" stroke="#313131" stroke-opacity="0.5" stroke-width="4" mask="url(#path-1-inside-1_28_3)"/>
<path d="M198.281 169.694C198.281 186.949 184.582 200.937 167.682 200.937C150.783 200.937 137.083 186.949 137.083 169.694C137.083 152.439 150.783 138.45 167.682 138.45C184.582 138.45 198.281 152.439 198.281 169.694Z" stroke="#313131" stroke-opacity="0.5" stroke-width="4" mask="url(#path-1-inside-1_28_3)"/>
<path d="M267.435 169.694C267.435 186.949 253.324 200.937 235.918 200.937C218.512 200.937 204.401 186.949 204.401 169.694C204.401 152.439 218.512 138.45 235.918 138.45C253.324 138.45 267.435 152.439 267.435 169.694Z" stroke="#313131" stroke-opacity="0.5" stroke-width="4" mask="url(#path-1-inside-1_28_3)"/>
<path d="M334.141 168.468C334.141 185.724 320.167 199.712 302.93 199.712C285.692 199.712 271.719 185.724 271.719 168.468C271.719 151.213 285.692 137.225 302.93 137.225C320.167 137.225 334.141 151.213 334.141 168.468Z" stroke="#313131" stroke-opacity="0.5" stroke-width="4" mask="url(#path-1-inside-1_28_3)"/>
<path d="M402.07 169.694C402.07 186.949 388.371 200.937 371.471 200.937C354.572 200.937 340.872 186.949 340.872 169.694C340.872 152.439 354.572 138.45 371.471 138.45C388.371 138.45 402.07 152.439 402.07 169.694Z" stroke="#313131" stroke-opacity="0.5" stroke-width="4" mask="url(#path-1-inside-1_28_3)"/>
<path d="M470 169.694C470 186.949 456.026 200.937 438.789 200.937C421.552 200.937 407.578 186.949 407.578 169.694C407.578 152.439 421.552 138.45 438.789 138.45C456.026 138.45 470 152.439 470 169.694Z" stroke="#313131" stroke-opacity="0.5" stroke-width="4" mask="url(#path-1-inside-1_28_3)"/>
<path d="M130.352 99.8559C130.352 117.111 116.789 131.099 100.059 131.099C83.3283 131.099 69.7656 117.111 69.7656 99.8559C69.7656 82.6007 83.3283 68.6126 100.059 68.6126C116.789 68.6126 130.352 82.6007 130.352 99.8559Z" stroke="#313131" stroke-opacity="0.5" stroke-width="4" mask="url(#path-1-inside-1_28_3)"/>
<path d="M198.281 100.775C198.281 117.861 184.582 131.712 167.682 131.712C150.783 131.712 137.083 117.861 137.083 100.775C137.083 83.6888 150.783 69.8378 167.682 69.8378C184.582 69.8378 198.281 83.6888 198.281 100.775Z" stroke="#313131" stroke-opacity="0.5" stroke-width="4" mask="url(#path-1-inside-1_28_3)"/>
<path d="M198.281 31.5495C198.281 48.2972 184.582 61.8739 167.682 61.8739C150.783 61.8739 137.083 48.2972 137.083 31.5495C137.083 14.8019 150.783 1.22523 167.682 1.22523C184.582 1.22523 198.281 14.8019 198.281 31.5495Z" stroke="#313131" stroke-opacity="0.5" stroke-width="4" mask="url(#path-1-inside-1_28_3)"/>
<path d="M267.435 100.775C267.435 117.861 253.324 131.712 235.918 131.712C218.512 131.712 204.401 117.861 204.401 100.775C204.401 83.6888 218.512 69.8378 235.918 69.8378C253.324 69.8378 267.435 83.6888 267.435 100.775Z" stroke="#313131" stroke-opacity="0.5" stroke-width="4" mask="url(#path-1-inside-1_28_3)"/>
<path d="M267.435 31.5495C267.435 48.2972 253.324 61.8739 235.918 61.8739C218.512 61.8739 204.401 48.2972 204.401 31.5495C204.401 14.8019 218.512 1.22523 235.918 1.22523C253.324 1.22523 267.435 14.8019 267.435 31.5495Z" stroke="#313131" stroke-opacity="0.5" stroke-width="4" mask="url(#path-1-inside-1_28_3)"/>
<path d="M334.141 99.8559C334.141 117.111 320.167 131.099 302.93 131.099C285.692 131.099 271.719 117.111 271.719 99.8559C271.719 82.6007 285.692 68.6126 302.93 68.6126C320.167 68.6126 334.141 82.6007 334.141 99.8559Z" stroke="#313131" stroke-opacity="0.5" stroke-width="4" mask="url(#path-1-inside-1_28_3)"/>
<path d="M334.141 30.6306C334.141 47.5475 320.167 61.2613 302.93 61.2613C285.692 61.2613 271.719 47.5475 271.719 30.6306C271.719 13.7138 285.692 0 302.93 0C320.167 0 334.141 13.7138 334.141 30.6306Z" stroke="#313131" stroke-opacity="0.5" stroke-width="4" mask="url(#path-1-inside-1_28_3)"/>
<path d="M402.07 100.775C402.07 117.861 388.371 131.712 371.471 131.712C354.572 131.712 340.872 117.861 340.872 100.775C340.872 83.6888 354.572 69.8378 371.471 69.8378C388.371 69.8378 402.07 83.6888 402.07 100.775Z" stroke="#313131" stroke-opacity="0.5" stroke-width="4" mask="url(#path-1-inside-1_28_3)"/>
<path d="M62.4219 237.081C62.4219 253.998 48.4483 267.712 31.2109 267.712C13.9736 267.712 0 253.998 0 237.081C0 220.164 13.9736 206.45 31.2109 206.45C48.4483 206.45 62.4219 220.164 62.4219 237.081Z" stroke="#313131" stroke-opacity="0.5" stroke-width="4" mask="url(#path-1-inside-1_28_3)"/>
<path d="M130.352 237.081C130.352 253.998 116.789 267.712 100.059 267.712C83.3283 267.712 69.7656 253.998 69.7656 237.081C69.7656 220.164 83.3283 206.45 100.059 206.45C116.789 206.45 130.352 220.164 130.352 237.081Z" stroke="#313131" stroke-opacity="0.5" stroke-width="4" mask="url(#path-1-inside-1_28_3)"/>
<path d="M198.281 238C198.281 255.424 184.582 269.55 167.682 269.55C150.783 269.55 137.083 255.424 137.083 238C137.083 220.576 150.783 206.45 167.682 206.45C184.582 206.45 198.281 220.576 198.281 238Z" stroke="#313131" stroke-opacity="0.5" stroke-width="4" mask="url(#path-1-inside-1_28_3)"/>
<path d="M267.435 238C267.435 255.424 253.324 269.55 235.918 269.55C218.512 269.55 204.401 255.424 204.401 238C204.401 220.576 218.512 206.45 235.918 206.45C253.324 206.45 267.435 220.576 267.435 238Z" stroke="#313131" stroke-opacity="0.5" stroke-width="4" mask="url(#path-1-inside-1_28_3)"/>
<path d="M334.141 237.081C334.141 253.998 320.167 267.712 302.93 267.712C285.692 267.712 271.719 253.998 271.719 237.081C271.719 220.164 285.692 206.45 302.93 206.45C320.167 206.45 334.141 220.164 334.141 237.081Z" stroke="#313131" stroke-opacity="0.5" stroke-width="4" mask="url(#path-1-inside-1_28_3)"/>
<path d="M402.07 238C402.07 255.424 388.371 269.55 371.471 269.55C354.572 269.55 340.872 255.424 340.872 238C340.872 220.576 354.572 206.45 371.471 206.45C388.371 206.45 402.07 220.576 402.07 238Z" stroke="#313131" stroke-opacity="0.5" stroke-width="4" mask="url(#path-1-inside-1_28_3)"/>
<path d="M470 238C470 255.424 456.026 269.55 438.789 269.55C421.552 269.55 407.578 255.424 407.578 238C407.578 220.576 421.552 206.45 438.789 206.45C456.026 206.45 470 220.576 470 238Z" stroke="#313131" stroke-opacity="0.5" stroke-width="4" mask="url(#path-1-inside-1_28_3)"/>
<path d="M62.4219 305.387C62.4219 322.473 48.4483 336.324 31.2109 336.324C13.9736 336.324 0 322.473 0 305.387C0 288.301 13.9736 274.45 31.2109 274.45C48.4483 274.45 62.4219 288.301 62.4219 305.387Z" stroke="#313131" stroke-opacity="0.5" stroke-width="4" mask="url(#path-1-inside-1_28_3)"/>
<path d="M130.352 305.387C130.352 322.473 116.789 336.324 100.059 336.324C83.3283 336.324 69.7656 322.473 69.7656 305.387C69.7656 288.301 83.3283 274.45 100.059 274.45C116.789 274.45 130.352 288.301 130.352 305.387Z" stroke="#313131" stroke-opacity="0.5" stroke-width="4" mask="url(#path-1-inside-1_28_3)"/>
<path d="M198.281 306C198.281 323.086 184.582 336.937 167.682 336.937C150.783 336.937 137.083 323.086 137.083 306C137.083 288.914 150.783 275.063 167.682 275.063C184.582 275.063 198.281 288.914 198.281 306Z" stroke="#313131" stroke-opacity="0.5" stroke-width="4" mask="url(#path-1-inside-1_28_3)"/>
<path d="M267.435 306C267.435 323.086 253.324 336.937 235.918 336.937C218.512 336.937 204.401 323.086 204.401 306C204.401 288.914 218.512 275.063 235.918 275.063C253.324 275.063 267.435 288.914 267.435 306Z" stroke="#313131" stroke-opacity="0.5" stroke-width="4" mask="url(#path-1-inside-1_28_3)"/>
<path d="M334.141 305.387C334.141 322.473 320.167 336.324 302.93 336.324C285.692 336.324 271.719 322.473 271.719 305.387C271.719 288.301 285.692 274.45 302.93 274.45C320.167 274.45 334.141 288.301 334.141 305.387Z" stroke="#313131" stroke-opacity="0.5" stroke-width="4" mask="url(#path-1-inside-1_28_3)"/>
<path d="M402.07 306C402.07 323.086 388.371 336.937 371.471 336.937C354.572 336.937 340.872 323.086 340.872 306C340.872 288.914 354.572 275.063 371.471 275.063C388.371 275.063 402.07 288.914 402.07 306Z" stroke="#313131" stroke-opacity="0.5" stroke-width="4" mask="url(#path-1-inside-1_28_3)"/>
<path d="M470 306C470 323.086 456.026 336.937 438.789 336.937C421.552 336.937 407.578 323.086 407.578 306C407.578 288.914 421.552 275.063 438.789 275.063C456.026 275.063 470 288.914 470 306Z" stroke="#313131" stroke-opacity="0.5" stroke-width="4" mask="url(#path-1-inside-1_28_3)"/>
<path d="M130.352 374.919C130.352 391.836 116.789 405.55 100.059 405.55C83.3283 405.55 69.7656 391.836 69.7656 374.919C69.7656 358.002 83.3283 344.288 100.059 344.288C116.789 344.288 130.352 358.002 130.352 374.919Z" stroke="#313131" stroke-opacity="0.5" stroke-width="4" mask="url(#path-1-inside-1_28_3)"/>
<path d="M198.281 375.225C198.281 391.973 184.582 405.55 167.682 405.55C150.783 405.55 137.083 391.973 137.083 375.225C137.083 358.478 150.783 344.901 167.682 344.901C184.582 344.901 198.281 358.478 198.281 375.225Z" stroke="#313131" stroke-opacity="0.5" stroke-width="4" mask="url(#path-1-inside-1_28_3)"/>
<path d="M198.281 444.757C198.281 462.012 184.582 476 167.682 476C150.783 476 137.083 462.012 137.083 444.757C137.083 427.502 150.783 413.514 167.682 413.514C184.582 413.514 198.281 427.502 198.281 444.757Z" stroke="#313131" stroke-opacity="0.5" stroke-width="4" mask="url(#path-1-inside-1_28_3)"/>
<path d="M267.435 375.225C267.435 391.973 253.324 405.55 235.918 405.55C218.512 405.55 204.401 391.973 204.401 375.225C204.401 358.478 218.512 344.901 235.918 344.901C253.324 344.901 267.435 358.478 267.435 375.225Z" stroke="#313131" stroke-opacity="0.5" stroke-width="4" mask="url(#path-1-inside-1_28_3)"/>
<path d="M267.435 444.757C267.435 462.012 253.324 476 235.918 476C218.512 476 204.401 462.012 204.401 444.757C204.401 427.502 218.512 413.514 235.918 413.514C253.324 413.514 267.435 427.502 267.435 444.757Z" stroke="#313131" stroke-opacity="0.5" stroke-width="4" mask="url(#path-1-inside-1_28_3)"/>
<path d="M334.141 374.919C334.141 391.836 320.167 405.55 302.93 405.55C285.692 405.55 271.719 391.836 271.719 374.919C271.719 358.002 285.692 344.288 302.93 344.288C320.167 344.288 334.141 358.002 334.141 374.919Z" stroke="#313131" stroke-opacity="0.5" stroke-width="4" mask="url(#path-1-inside-1_28_3)"/>
<path d="M334.141 444.45C334.141 461.536 320.167 475.387 302.93 475.387C285.692 475.387 271.719 461.536 271.719 444.45C271.719 427.364 285.692 413.514 302.93 413.514C320.167 413.514 334.141 427.364 334.141 444.45Z" stroke="#313131" stroke-opacity="0.5" stroke-width="4" mask="url(#path-1-inside-1_28_3)"/>
<path d="M402.07 375.225C402.07 391.973 388.371 405.55 371.471 405.55C354.572 405.55 340.872 391.973 340.872 375.225C340.872 358.478 354.572 344.901 371.471 344.901C388.371 344.901 402.07 358.478 402.07 375.225Z" stroke="#313131" stroke-opacity="0.5" stroke-width="4" mask="url(#path-1-inside-1_28_3)"/>
</g>
<defs>
<filter id="filter0_d_28_3" x="0" y="0" width="486" height="492" filterUnits="userSpaceOnUse" color-interpolation-filters="sRGB">
<feFlood flood-opacity="0" result="BackgroundImageFix"/>
<feColorMatrix in="SourceAlpha" type="matrix" values="0 0 0 0 0 0 0 0 0 0 0 0 0 0 0 0 0 0 127 0" result="hardAlpha"/>
<feOffset dx="9" dy="9"/>
<feGaussianBlur stdDeviation="3.5"/>
<feComposite in2="hardAlpha" operator="out"/>
<feColorMatrix type="matrix" values="0 0 0 0 0 0 0 0 0 0 0 0 0 0 0 0 0 0 0.25 0"/>
<feBlend mode="normal" in2="BackgroundImageFix" result="effect1_dropShadow_28_3"/>
<feBlend mode="normal" in="SourceGraphic" in2="effect1_dropShadow_28_3" result="shape"/>
</filter>
</defs>
</svg>
